<svg t="1730871188601" class="icon" viewBox="0 0 1024 1024" version="1.1" xmlns="http://www.w3.org/2000/svg" p-id="4423"
    width="200" height="200">
    <path
        d="M712.64 960a76.8 76.8 0 0 1-63.744-33.92L320 438.144V883.2A76.8 76.8 0 0 1 243.2 960H140.8A76.8 76.8 0 0 1 64 883.2V140.8A76.8 76.8 0 0 1 140.8 64h174.464c25.536 0 49.408 12.672 63.68 33.92L704 580.096V140.8A76.8 76.8 0 0 1 780.8 64h102.4A76.8 76.8 0 0 1 960 140.8v742.4a76.8 76.8 0 0 1-76.8 76.8h-170.56zM128 153.216V896h128V343.104L128 153.216z m188.288-25.152L315.264 128H188.16l513.856 762.368a12.8 12.8 0 0 0 9.536 5.568l1.088 0.064h127.04L325.888 133.632a12.8 12.8 0 0 0-9.6-5.568zM896 128h-128v547.136l128 189.888V128z"
        p-id="4424"></path>
</svg>