<svg t="1732501889504" class="icon" viewBox="0 0 1024 1024" version="1.1" xmlns="http://www.w3.org/2000/svg" p-id="4266"
    width="200" height="200">
    <path
        d="M512 0a512 512 0 1 0 512 512 512.585143 512.585143 0 0 0-512-512z m0 945.225143A433.225143 433.225143 0 1 1 945.225143 512 433.737143 433.737143 0 0 1 512 945.225143z"
        p-id="4267"></path>
    <path
        d="M445.147429 263.899429a42.203429 42.203429 0 0 0-66.998858 34.157714v448.073143a42.203429 42.203429 0 0 0 66.998858 34.084571l308.077714-224.036571a42.203429 42.203429 0 0 0 0-68.242286L445.147429 263.972571z"
        p-id="4268"></path>
</svg>